# xmcd CD database file
# Copyright (C) 1993-1998 Ti Kan
# 
# Track frame offsets:
#     150
#     14382
#     27992
#     45105
#     64360
#     78887
#     94925
#     109217
#     123925
#     139607
#     160205
#     177932
# 
# Disc length: 2521 seconds
# 
# Revision: 1
# Processed by: cddbd v1.4b41PL1 Copyright (c) Steve Scherf et al.
# Submitted via: DiscPlay 4.0.4
# 
DISCID=9309d70c
DTITLE=Rena Gaile - Out On a Limb
DYEAR=1900
DGENRE=
TTITLE0=Out On a Limb
TTITLE1=Better Off Blue
TTITLE2=The Hand That Rocked the Cradle
TTITLE3=Stones On the Road
TTITLE4=Cloud of Dust
TTITLE5=I Know Myself Too Well
TTITLE6=Girl Thang
TTITLE7=Broken Moon
TTITLE8=All She Wants
TTITLE9=If You See My Heart
TTITLE10=Daddy's School
TTITLE11=The One You Used To Love
EXTD=
EXTT0=
EXTT1=
EXTT2=
EXTT3=
EXTT4=
EXTT5=
EXTT6=
EXTT7=
EXTT8=
EXTT9=
EXTT10=
EXTT11=
PLAYORDER=
